<mxfile host="app.diagrams.net" modified="2022-12-24T09:09:59.369Z" agent="5.0 (Macintosh; Intel Mac OS X 10_15_7) AppleWebKit/605.1.15 (KHTML, like Gecko) Version/16.1 Safari/605.1.15" etag="bo99h-TwO8fmkOu9GeG1" version="20.7.4" type="github">
  <diagram id="fQSt_fOK0Xsc4ARmpKlO" name="Page-1">
    <mxGraphModel dx="855" dy="577" grid="1" gridSize="10" guides="1" tooltips="1" connect="1" arrows="1" fold="1" page="1" pageScale="1" pageWidth="827" pageHeight="1169" math="0" shadow="0">
      <root>
        <mxCell id="0" />
        <mxCell id="1" parent="0" />
        <mxCell id="g4wnJ7qk00Yk6ikP5ePi-3" style="edgeStyle=orthogonalEdgeStyle;rounded=0;orthogonalLoop=1;jettySize=auto;html=1;" parent="1" source="g4wnJ7qk00Yk6ikP5ePi-1" target="g4wnJ7qk00Yk6ikP5ePi-2" edge="1">
          <mxGeometry relative="1" as="geometry" />
        </mxCell>
        <mxCell id="g4wnJ7qk00Yk6ikP5ePi-1" value="" style="sketch=0;outlineConnect=0;fontColor=#232F3E;gradientColor=none;fillColor=#232F3D;strokeColor=none;dashed=0;verticalLabelPosition=bottom;verticalAlign=top;align=center;html=1;fontSize=12;fontStyle=0;aspect=fixed;pointerEvents=1;shape=mxgraph.aws4.user;" parent="1" vertex="1">
          <mxGeometry x="40" y="80" width="78" height="78" as="geometry" />
        </mxCell>
        <mxCell id="g4wnJ7qk00Yk6ikP5ePi-5" style="edgeStyle=orthogonalEdgeStyle;rounded=0;orthogonalLoop=1;jettySize=auto;html=1;exitX=0.25;exitY=1;exitDx=0;exitDy=0;entryX=0.25;entryY=0;entryDx=0;entryDy=0;" parent="1" source="g4wnJ7qk00Yk6ikP5ePi-2" target="g4wnJ7qk00Yk6ikP5ePi-4" edge="1">
          <mxGeometry relative="1" as="geometry" />
        </mxCell>
        <mxCell id="g4wnJ7qk00Yk6ikP5ePi-7" value="Email&lt;br&gt;Password" style="edgeLabel;html=1;align=center;verticalAlign=middle;resizable=0;points=[];" parent="g4wnJ7qk00Yk6ikP5ePi-5" vertex="1" connectable="0">
          <mxGeometry x="-0.2157" y="2" relative="1" as="geometry">
            <mxPoint x="-32" as="offset" />
          </mxGeometry>
        </mxCell>
        <mxCell id="g4wnJ7qk00Yk6ikP5ePi-11" style="edgeStyle=none;rounded=0;orthogonalLoop=1;jettySize=auto;html=1;" parent="1" source="g4wnJ7qk00Yk6ikP5ePi-2" target="g4wnJ7qk00Yk6ikP5ePi-9" edge="1">
          <mxGeometry relative="1" as="geometry" />
        </mxCell>
        <mxCell id="g4wnJ7qk00Yk6ikP5ePi-2" value="Front (Vue)" style="rounded=0;whiteSpace=wrap;html=1;fillColor=#ffe6cc;strokeColor=#d79b00;" parent="1" vertex="1">
          <mxGeometry x="200" y="89" width="120" height="60" as="geometry" />
        </mxCell>
        <mxCell id="g4wnJ7qk00Yk6ikP5ePi-6" style="edgeStyle=orthogonalEdgeStyle;rounded=0;orthogonalLoop=1;jettySize=auto;html=1;exitX=0.75;exitY=0;exitDx=0;exitDy=0;entryX=0.75;entryY=1;entryDx=0;entryDy=0;" parent="1" source="g4wnJ7qk00Yk6ikP5ePi-4" target="g4wnJ7qk00Yk6ikP5ePi-2" edge="1">
          <mxGeometry relative="1" as="geometry" />
        </mxCell>
        <mxCell id="g4wnJ7qk00Yk6ikP5ePi-8" value="JWT" style="edgeLabel;html=1;align=center;verticalAlign=middle;resizable=0;points=[];" parent="g4wnJ7qk00Yk6ikP5ePi-6" vertex="1" connectable="0">
          <mxGeometry x="0.1373" y="2" relative="1" as="geometry">
            <mxPoint x="22" as="offset" />
          </mxGeometry>
        </mxCell>
        <mxCell id="g4wnJ7qk00Yk6ikP5ePi-10" style="rounded=0;orthogonalLoop=1;jettySize=auto;html=1;entryX=0;entryY=1;entryDx=0;entryDy=0;exitX=1;exitY=0.5;exitDx=0;exitDy=0;" parent="1" source="g4wnJ7qk00Yk6ikP5ePi-4" target="g4wnJ7qk00Yk6ikP5ePi-9" edge="1">
          <mxGeometry relative="1" as="geometry" />
        </mxCell>
        <mxCell id="g4wnJ7qk00Yk6ikP5ePi-18" value="JWT Public Key" style="edgeLabel;html=1;align=center;verticalAlign=middle;resizable=0;points=[];" parent="g4wnJ7qk00Yk6ikP5ePi-10" vertex="1" connectable="0">
          <mxGeometry x="-0.2213" y="-1" relative="1" as="geometry">
            <mxPoint x="13" y="-5" as="offset" />
          </mxGeometry>
        </mxCell>
        <mxCell id="g4wnJ7qk00Yk6ikP5ePi-81" style="edgeStyle=orthogonalEdgeStyle;rounded=0;orthogonalLoop=1;jettySize=auto;html=1;strokeColor=default;endArrow=none;endFill=0;dashed=1;dashPattern=1 1;" parent="1" source="g4wnJ7qk00Yk6ikP5ePi-4" target="g4wnJ7qk00Yk6ikP5ePi-25" edge="1">
          <mxGeometry relative="1" as="geometry">
            <Array as="points">
              <mxPoint x="170" y="230" />
              <mxPoint x="170" y="230" />
            </Array>
          </mxGeometry>
        </mxCell>
        <mxCell id="9R83s1zdaic50S2I6MP4-2" style="edgeStyle=orthogonalEdgeStyle;rounded=0;orthogonalLoop=1;jettySize=auto;html=1;entryX=0;entryY=0.5;entryDx=0;entryDy=0;" edge="1" parent="1" source="g4wnJ7qk00Yk6ikP5ePi-4" target="g4wnJ7qk00Yk6ikP5ePi-34">
          <mxGeometry relative="1" as="geometry">
            <Array as="points">
              <mxPoint x="260" y="362" />
              <mxPoint x="405" y="362" />
            </Array>
          </mxGeometry>
        </mxCell>
        <mxCell id="g4wnJ7qk00Yk6ikP5ePi-4" value="Auth Service" style="rounded=0;whiteSpace=wrap;html=1;fillColor=#ffe6cc;strokeColor=#d79b00;" parent="1" vertex="1">
          <mxGeometry x="200" y="200" width="120" height="60" as="geometry" />
        </mxCell>
        <mxCell id="g4wnJ7qk00Yk6ikP5ePi-9" value="API Gateway&lt;br&gt;(KrakenD)" style="rounded=0;whiteSpace=wrap;html=1;fillColor=#ffe6cc;strokeColor=#d79b00;" parent="1" vertex="1">
          <mxGeometry x="440" y="73.5" width="120" height="91" as="geometry" />
        </mxCell>
        <mxCell id="g4wnJ7qk00Yk6ikP5ePi-59" style="edgeStyle=elbowEdgeStyle;rounded=0;orthogonalLoop=1;jettySize=auto;html=1;entryX=0.5;entryY=0;entryDx=0;entryDy=0;strokeColor=default;endArrow=classic;endFill=1;elbow=vertical;" parent="1" source="g4wnJ7qk00Yk6ikP5ePi-13" target="g4wnJ7qk00Yk6ikP5ePi-19" edge="1">
          <mxGeometry relative="1" as="geometry" />
        </mxCell>
        <mxCell id="g4wnJ7qk00Yk6ikP5ePi-13" value="/v1/task-admin/" style="rounded=0;whiteSpace=wrap;html=1;fillColor=#d5e8d4;strokeColor=#82b366;" parent="1" vertex="1">
          <mxGeometry x="560" y="130" width="120" height="34.5" as="geometry" />
        </mxCell>
        <mxCell id="g4wnJ7qk00Yk6ikP5ePi-60" style="edgeStyle=orthogonalEdgeStyle;rounded=0;orthogonalLoop=1;jettySize=auto;html=1;entryX=0.5;entryY=0;entryDx=0;entryDy=0;strokeColor=default;endArrow=classic;endFill=1;exitX=1;exitY=0.5;exitDx=0;exitDy=0;" parent="1" source="g4wnJ7qk00Yk6ikP5ePi-14" target="g4wnJ7qk00Yk6ikP5ePi-29" edge="1">
          <mxGeometry x="-0.1307" y="30" relative="1" as="geometry">
            <mxPoint as="offset" />
          </mxGeometry>
        </mxCell>
        <mxCell id="g4wnJ7qk00Yk6ikP5ePi-14" value="/v1/accounting/" style="rounded=0;whiteSpace=wrap;html=1;fillColor=#e1d5e7;strokeColor=#9673a6;" parent="1" vertex="1">
          <mxGeometry x="560" y="103.5" width="120" height="30" as="geometry" />
        </mxCell>
        <mxCell id="g4wnJ7qk00Yk6ikP5ePi-61" style="edgeStyle=orthogonalEdgeStyle;rounded=0;orthogonalLoop=1;jettySize=auto;html=1;strokeColor=default;endArrow=classic;endFill=1;" parent="1" source="g4wnJ7qk00Yk6ikP5ePi-16" target="g4wnJ7qk00Yk6ikP5ePi-31" edge="1">
          <mxGeometry relative="1" as="geometry" />
        </mxCell>
        <mxCell id="g4wnJ7qk00Yk6ikP5ePi-16" value="/v1/analytics/" style="rounded=0;whiteSpace=wrap;html=1;fillColor=#f8cecc;strokeColor=#b85450;" parent="1" vertex="1">
          <mxGeometry x="560" y="73.5" width="120" height="31" as="geometry" />
        </mxCell>
        <mxCell id="g4wnJ7qk00Yk6ikP5ePi-75" style="edgeStyle=orthogonalEdgeStyle;rounded=0;orthogonalLoop=1;jettySize=auto;html=1;exitX=0.5;exitY=1;exitDx=0;exitDy=0;strokeColor=default;endArrow=classic;endFill=1;" parent="1" source="g4wnJ7qk00Yk6ikP5ePi-19" target="g4wnJ7qk00Yk6ikP5ePi-34" edge="1">
          <mxGeometry relative="1" as="geometry">
            <Array as="points">
              <mxPoint x="510" y="330" />
              <mxPoint x="510" y="330" />
            </Array>
          </mxGeometry>
        </mxCell>
        <mxCell id="g4wnJ7qk00Yk6ikP5ePi-80" style="edgeStyle=orthogonalEdgeStyle;rounded=0;orthogonalLoop=1;jettySize=auto;html=1;strokeColor=default;endArrow=none;endFill=0;dashed=1;dashPattern=1 1;" parent="1" source="g4wnJ7qk00Yk6ikP5ePi-19" target="g4wnJ7qk00Yk6ikP5ePi-20" edge="1">
          <mxGeometry relative="1" as="geometry">
            <Array as="points">
              <mxPoint x="383" y="260" />
            </Array>
          </mxGeometry>
        </mxCell>
        <mxCell id="g4wnJ7qk00Yk6ikP5ePi-19" value="Task Admin" style="rounded=0;whiteSpace=wrap;html=1;fillColor=#d5e8d4;strokeColor=#82b366;" parent="1" vertex="1">
          <mxGeometry x="450" y="240" width="120" height="60" as="geometry" />
        </mxCell>
        <mxCell id="g4wnJ7qk00Yk6ikP5ePi-20" value="&lt;br&gt;&amp;nbsp; &amp;nbsp; &amp;nbsp; task-admin" style="strokeWidth=2;html=1;shape=mxgraph.flowchart.database;whiteSpace=wrap;" parent="1" vertex="1">
          <mxGeometry x="340" y="250" width="85" height="50" as="geometry" />
        </mxCell>
        <mxCell id="g4wnJ7qk00Yk6ikP5ePi-25" value="&amp;nbsp; &amp;nbsp; &amp;nbsp; &amp;nbsp;&lt;br&gt;&amp;nbsp; &amp;nbsp; &amp;nbsp; &amp;nbsp;auth-db" style="strokeWidth=2;html=1;shape=mxgraph.flowchart.database;whiteSpace=wrap;" parent="1" vertex="1">
          <mxGeometry x="80" y="205" width="85" height="50" as="geometry" />
        </mxCell>
        <mxCell id="g4wnJ7qk00Yk6ikP5ePi-26" value="&amp;nbsp; &amp;nbsp; &amp;nbsp; &lt;br&gt;&amp;nbsp; &amp;nbsp; &amp;nbsp; &amp;nbsp; &amp;nbsp;accounting-db" style="strokeWidth=2;html=1;shape=mxgraph.flowchart.database;whiteSpace=wrap;" parent="1" vertex="1">
          <mxGeometry x="755" y="245" width="110" height="50" as="geometry" />
        </mxCell>
        <mxCell id="g4wnJ7qk00Yk6ikP5ePi-74" style="edgeStyle=orthogonalEdgeStyle;rounded=0;orthogonalLoop=1;jettySize=auto;html=1;strokeColor=default;endArrow=classic;endFill=1;elbow=vertical;" parent="1" source="g4wnJ7qk00Yk6ikP5ePi-29" target="g4wnJ7qk00Yk6ikP5ePi-34" edge="1">
          <mxGeometry relative="1" as="geometry">
            <Array as="points">
              <mxPoint x="660" y="330" />
              <mxPoint x="660" y="330" />
            </Array>
          </mxGeometry>
        </mxCell>
        <mxCell id="g4wnJ7qk00Yk6ikP5ePi-87" style="edgeStyle=orthogonalEdgeStyle;rounded=0;orthogonalLoop=1;jettySize=auto;html=1;entryX=0;entryY=0.5;entryDx=0;entryDy=0;entryPerimeter=0;dashed=1;dashPattern=1 1;strokeColor=default;endArrow=none;endFill=0;" parent="1" source="g4wnJ7qk00Yk6ikP5ePi-29" target="g4wnJ7qk00Yk6ikP5ePi-26" edge="1">
          <mxGeometry relative="1" as="geometry" />
        </mxCell>
        <mxCell id="g4wnJ7qk00Yk6ikP5ePi-29" value="Accounting" style="rounded=0;whiteSpace=wrap;html=1;fillColor=#e1d5e7;strokeColor=#9673a6;" parent="1" vertex="1">
          <mxGeometry x="600" y="240" width="120" height="60" as="geometry" />
        </mxCell>
        <mxCell id="g4wnJ7qk00Yk6ikP5ePi-73" style="edgeStyle=elbowEdgeStyle;rounded=0;orthogonalLoop=1;jettySize=auto;html=1;strokeColor=default;endArrow=classic;endFill=1;elbow=vertical;" parent="1" source="g4wnJ7qk00Yk6ikP5ePi-34" target="g4wnJ7qk00Yk6ikP5ePi-29" edge="1">
          <mxGeometry x="0.1111" y="20" relative="1" as="geometry">
            <Array as="points">
              <mxPoint x="670" y="320" />
              <mxPoint x="690" y="330" />
            </Array>
            <mxPoint as="offset" />
          </mxGeometry>
        </mxCell>
        <mxCell id="g4wnJ7qk00Yk6ikP5ePi-77" style="edgeStyle=orthogonalEdgeStyle;rounded=0;orthogonalLoop=1;jettySize=auto;html=1;exitX=0.5;exitY=1;exitDx=0;exitDy=0;strokeColor=default;endArrow=classic;endFill=1;" parent="1" source="g4wnJ7qk00Yk6ikP5ePi-34" target="g4wnJ7qk00Yk6ikP5ePi-45" edge="1">
          <mxGeometry relative="1" as="geometry" />
        </mxCell>
        <mxCell id="9R83s1zdaic50S2I6MP4-1" style="edgeStyle=orthogonalEdgeStyle;rounded=0;orthogonalLoop=1;jettySize=auto;html=1;" edge="1" parent="1" source="g4wnJ7qk00Yk6ikP5ePi-34" target="g4wnJ7qk00Yk6ikP5ePi-19">
          <mxGeometry relative="1" as="geometry">
            <mxPoint x="548" y="360" as="sourcePoint" />
            <Array as="points">
              <mxPoint x="520" y="320" />
              <mxPoint x="520" y="320" />
            </Array>
          </mxGeometry>
        </mxCell>
        <mxCell id="g4wnJ7qk00Yk6ikP5ePi-34" value="RabbitMQ" style="rounded=1;whiteSpace=wrap;html=1;fillColor=#dae8fc;strokeColor=#6c8ebf;" parent="1" vertex="1">
          <mxGeometry x="490" y="345" width="230" height="35" as="geometry" />
        </mxCell>
        <mxCell id="g4wnJ7qk00Yk6ikP5ePi-45" value="Notification" style="rounded=0;whiteSpace=wrap;html=1;fillColor=#fff2cc;strokeColor=#d6b656;" parent="1" vertex="1">
          <mxGeometry x="545" y="420" width="120" height="60" as="geometry" />
        </mxCell>
        <mxCell id="g4wnJ7qk00Yk6ikP5ePi-88" style="edgeStyle=orthogonalEdgeStyle;rounded=0;orthogonalLoop=1;jettySize=auto;html=1;entryX=0.5;entryY=0;entryDx=0;entryDy=0;entryPerimeter=0;dashed=1;dashPattern=1 1;strokeColor=default;endArrow=none;endFill=0;" parent="1" source="g4wnJ7qk00Yk6ikP5ePi-31" target="g4wnJ7qk00Yk6ikP5ePi-26" edge="1">
          <mxGeometry relative="1" as="geometry" />
        </mxCell>
        <mxCell id="g4wnJ7qk00Yk6ikP5ePi-31" value="Analytics" style="rounded=0;whiteSpace=wrap;html=1;fillColor=#f8cecc;strokeColor=#b85450;" parent="1" vertex="1">
          <mxGeometry x="750" y="130" width="120" height="60" as="geometry" />
        </mxCell>
        <mxCell id="g4wnJ7qk00Yk6ikP5ePi-22" value="" style="shape=image;verticalLabelPosition=bottom;labelBackgroundColor=default;verticalAlign=top;aspect=fixed;imageAspect=0;image=https://upload.wikimedia.org/wikipedia/commons/thumb/2/29/Postgresql_elephant.svg/993px-Postgresql_elephant.svg.png;" parent="1" vertex="1">
          <mxGeometry x="86.5" y="231" width="19.39" height="20" as="geometry" />
        </mxCell>
        <mxCell id="g4wnJ7qk00Yk6ikP5ePi-83" value="" style="shape=image;verticalLabelPosition=bottom;labelBackgroundColor=default;verticalAlign=top;aspect=fixed;imageAspect=0;image=https://upload.wikimedia.org/wikipedia/commons/thumb/2/29/Postgresql_elephant.svg/993px-Postgresql_elephant.svg.png;" parent="1" vertex="1">
          <mxGeometry x="342" y="270" width="19.39" height="20" as="geometry" />
        </mxCell>
        <mxCell id="g4wnJ7qk00Yk6ikP5ePi-84" value="" style="shape=image;verticalLabelPosition=bottom;labelBackgroundColor=default;verticalAlign=top;aspect=fixed;imageAspect=0;image=https://upload.wikimedia.org/wikipedia/commons/thumb/2/29/Postgresql_elephant.svg/993px-Postgresql_elephant.svg.png;" parent="1" vertex="1">
          <mxGeometry x="758" y="270" width="19.39" height="20" as="geometry" />
        </mxCell>
      </root>
    </mxGraphModel>
  </diagram>
</mxfile>
